<?xml version="1.0" encoding="UTF-8" standalone="no"?>
<!DOCTYPE svg PUBLIC "-//W3C//DTD SVG 1.1//EN"
 "http://www.w3.org/Graphics/SVG/1.1/DTD/svg11.dtd">
<!-- Generated by graphviz version 5.0.0 (0)
 -->
<!-- Title: G Pages: 1 -->
<svg width="541pt" height="364pt"
 viewBox="0.00 0.00 541.34 364.36" xmlns="http://www.w3.org/2000/svg" xmlns:xlink="http://www.w3.org/1999/xlink">
<g id="graph0" class="graph" transform="scale(1 1) rotate(0) translate(4 360.36)">
<title>G</title>
<polygon fill="white" stroke="transparent" points="-4,4 -4,-360.36 537.34,-360.36 537.34,4 -4,4"/>
<!-- Vmem -->
<g id="node1" class="node">
<title>Vmem</title>
<ellipse fill="maroon" stroke="maroon" cx="169.12" cy="-18.38" rx="44.6" ry="18.27"/>
<text text-anchor="middle" x="169.12" y="-14.58" font-family="DejaVu Sans" font-size="16.00" fill="White">Vmem</text>
</g>
<!-- Na -->
<g id="node2" class="node">
<title>Na</title>
<ellipse fill="LightCyan" stroke="LightCyan" cx="75.12" cy="-144.46" rx="27" ry="18.27"/>
<text text-anchor="middle" x="75.12" y="-140.66" font-family="DejaVu Sans" font-size="16.00">Na</text>
</g>
<!-- Pmem_Na -->
<g id="node3" class="node">
<title>Pmem_Na</title>
<polygon fill="DarkSeaGreen" stroke="DarkSeaGreen" points="150.35,-80 112.74,-101.46 37.5,-101.46 -0.12,-80 37.5,-58.54 112.74,-58.54 150.35,-80"/>
<text text-anchor="middle" x="75.12" y="-76.2" font-family="DejaVu Sans" font-size="16.00" fill="White">Pmem_Na</text>
</g>
<!-- Na&#45;&gt;Pmem_Na -->
<g id="edge1" class="edge">
<title>Na&#45;&gt;Pmem_Na</title>
<path fill="none" stroke="black" stroke-width="2" d="M75.12,-126.06C75.12,-121.51 75.12,-116.48 75.12,-111.47"/>
<polygon fill="black" stroke="black" stroke-width="2" points="78.62,-111.4 75.12,-101.4 71.62,-111.4 78.62,-111.4"/>
</g>
<!-- Pmem_Na&#45;&gt;Vmem -->
<g id="edge9" class="edge">
<title>Pmem_Na&#45;&gt;Vmem</title>
<path fill="none" stroke="blue" stroke-width="2" d="M107.2,-58.65C117.49,-52.13 128.84,-44.93 138.98,-38.5"/>
<ellipse fill="blue" stroke="blue" stroke-width="2" cx="142.4" cy="-36.33" rx="4" ry="4"/>
</g>
<!-- Na_env -->
<g id="node4" class="node">
<title>Na_env</title>
<ellipse fill="LightCyan" stroke="LightCyan" cx="67.12" cy="-18.38" rx="50.82" ry="18.27"/>
<text text-anchor="middle" x="67.12" y="-14.58" font-family="DejaVu Sans" font-size="16.00">Na_env</text>
</g>
<!-- Pmem_Na&#45;&gt;Na_env -->
<g id="edge2" class="edge">
<title>Pmem_Na&#45;&gt;Na_env</title>
<path fill="none" stroke="black" stroke-width="2" d="M72.36,-58.48C71.87,-54.76 71.34,-50.82 70.82,-46.94"/>
<polygon fill="black" stroke="black" stroke-width="2" points="74.28,-46.4 69.48,-36.96 67.34,-47.34 74.28,-46.4"/>
</g>
<!-- K -->
<g id="node5" class="node">
<title>K</title>
<ellipse fill="LightCyan" stroke="LightCyan" cx="75.12" cy="-210.41" rx="27" ry="18.27"/>
<text text-anchor="middle" x="75.12" y="-206.61" font-family="DejaVu Sans" font-size="16.00">K</text>
</g>
<!-- Pmem_K -->
<g id="node6" class="node">
<title>Pmem_K</title>
<polygon fill="DarkSeaGreen" stroke="DarkSeaGreen" points="263.66,-144.46 229.89,-165.92 162.35,-165.92 128.58,-144.46 162.35,-123 229.89,-123 263.66,-144.46"/>
<text text-anchor="middle" x="196.12" y="-140.66" font-family="DejaVu Sans" font-size="16.00" fill="White">Pmem_K</text>
</g>
<!-- K&#45;&gt;Pmem_K -->
<g id="edge3" class="edge">
<title>K&#45;&gt;Pmem_K</title>
<path fill="none" stroke="black" stroke-width="2" d="M92.8,-196.23C97.07,-193.27 101.68,-190.25 106.12,-187.69 119.1,-180.16 133.65,-172.88 147.19,-166.54"/>
<polygon fill="black" stroke="black" stroke-width="2" points="148.76,-169.67 156.38,-162.31 145.84,-163.32 148.76,-169.67"/>
</g>
<!-- Pmem_K&#45;&gt;Vmem -->
<g id="edge10" class="edge">
<title>Pmem_K&#45;&gt;Vmem</title>
<path fill="none" stroke="red" stroke-width="2" d="M182.69,-123.2C178.9,-116.48 175.24,-108.78 173.12,-101.23 167.69,-81.91 167.03,-59.03 167.53,-42.38"/>
<polygon fill="red" stroke="red" stroke-width="2" points="162.71,-37.8 172.7,-38.18 172.62,-40.18 162.63,-39.79 162.71,-37.8"/>
<polyline fill="none" stroke="red" stroke-width="2" points="167.74,-36.99 167.55,-41.99 "/>
</g>
<!-- K_env -->
<g id="node7" class="node">
<title>K_env</title>
<ellipse fill="LightCyan" stroke="LightCyan" cx="220.12" cy="-80" rx="43.68" ry="18.27"/>
<text text-anchor="middle" x="220.12" y="-76.2" font-family="DejaVu Sans" font-size="16.00">K_env</text>
</g>
<!-- Pmem_K&#45;&gt;K_env -->
<g id="edge4" class="edge">
<title>Pmem_K&#45;&gt;K_env</title>
<path fill="none" stroke="black" stroke-width="2" d="M203.98,-123.01C205.84,-118.15 207.86,-112.9 209.82,-107.8"/>
<polygon fill="black" stroke="black" stroke-width="2" points="213.13,-108.94 213.45,-98.35 206.59,-106.43 213.13,-108.94"/>
</g>
<!-- K_env&#45;&gt;Vmem -->
<g id="edge11" class="edge">
<title>K_env&#45;&gt;Vmem</title>
<path fill="none" stroke="blue" stroke-width="2" d="M205.91,-62.39C200.61,-56.19 194.48,-49.03 188.77,-42.36"/>
<ellipse fill="blue" stroke="blue" stroke-width="2" cx="185.85" cy="-38.94" rx="4" ry="4"/>
</g>
<!-- P -->
<g id="node8" class="node">
<title>P</title>
<ellipse fill="LightCyan" stroke="LightCyan" cx="329.12" cy="-337.98" rx="27" ry="18.27"/>
<text text-anchor="middle" x="329.12" y="-334.18" font-family="DejaVu Sans" font-size="16.00">P</text>
</g>
<!-- M -->
<g id="node9" class="node">
<title>M</title>
<ellipse fill="LightCyan" stroke="LightCyan" cx="463.12" cy="-337.98" rx="27" ry="18.27"/>
<text text-anchor="middle" x="463.12" y="-334.18" font-family="DejaVu Sans" font-size="16.00">M</text>
</g>
<!-- Pmem_M -->
<g id="node10" class="node">
<title>Pmem_M</title>
<polygon fill="DarkSeaGreen" stroke="DarkSeaGreen" points="533.56,-276.36 498.34,-297.82 427.9,-297.82 392.68,-276.36 427.9,-254.9 498.34,-254.9 533.56,-276.36"/>
<text text-anchor="middle" x="463.12" y="-272.56" font-family="DejaVu Sans" font-size="16.00" fill="White">Pmem_M</text>
</g>
<!-- M&#45;&gt;Pmem_M -->
<g id="edge5" class="edge">
<title>M&#45;&gt;Pmem_M</title>
<path fill="none" stroke="black" stroke-width="2" d="M463.12,-319.41C463.12,-315.84 463.12,-311.98 463.12,-308.1"/>
<polygon fill="black" stroke="black" stroke-width="2" points="466.62,-307.95 463.12,-297.95 459.62,-307.95 466.62,-307.95"/>
</g>
<!-- M_env -->
<g id="node11" class="node">
<title>M_env</title>
<ellipse fill="LightCyan" stroke="LightCyan" cx="463.12" cy="-210.41" rx="45.92" ry="18.27"/>
<text text-anchor="middle" x="463.12" y="-206.61" font-family="DejaVu Sans" font-size="16.00">M_env</text>
</g>
<!-- Pmem_M&#45;&gt;M_env -->
<g id="edge6" class="edge">
<title>Pmem_M&#45;&gt;M_env</title>
<path fill="none" stroke="black" stroke-width="2" d="M463.12,-255.13C463.12,-250.17 463.12,-244.78 463.12,-239.53"/>
<polygon fill="black" stroke="black" stroke-width="2" points="466.62,-239.14 463.12,-229.14 459.62,-239.14 466.62,-239.14"/>
</g>
<!-- Anion -->
<g id="node12" class="node">
<title>Anion</title>
<ellipse fill="LightCyan" stroke="LightCyan" cx="200.12" cy="-276.36" rx="41.02" ry="18.27"/>
<text text-anchor="middle" x="200.12" y="-272.56" font-family="DejaVu Sans" font-size="16.00">Anion</text>
</g>
<!-- Anion_decay -->
<g id="node14" class="node">
<title>Anion_decay</title>
<polygon fill="DarkSeaGreen" stroke="DarkSeaGreen" points="219.12,-228.41 109.12,-228.41 109.12,-192.41 219.12,-192.41 219.12,-228.41"/>
<text text-anchor="middle" x="164.12" y="-206.61" font-family="DejaVu Sans" font-size="16.00" fill="White">Anion_decay</text>
</g>
<!-- Anion&#45;&gt;Anion_decay -->
<g id="edge8" class="edge">
<title>Anion&#45;&gt;Anion_decay</title>
<path fill="none" stroke="black" stroke-width="2" d="M190.47,-258.23C186.92,-251.92 182.81,-244.62 178.91,-237.69"/>
<polygon fill="black" stroke="black" stroke-width="2" points="181.75,-235.59 173.79,-228.6 175.65,-239.03 181.75,-235.59"/>
</g>
<!-- K_Channel1 -->
<g id="node15" class="node">
<title>K_Channel1</title>
<polygon fill="DarkSeaGreen" stroke="DarkSeaGreen" points="409.66,-217.5 318.12,-233.36 226.57,-217.5 261.54,-191.84 374.7,-191.84 409.66,-217.5"/>
<text text-anchor="middle" x="318.12" y="-206.61" font-family="DejaVu Sans" font-size="16.00" fill="White">K_Channel1</text>
</g>
<!-- Anion&#45;&gt;K_Channel1 -->
<g id="edge13" class="edge">
<title>Anion&#45;&gt;K_Channel1</title>
<path fill="none" stroke="red" stroke-width="2" d="M225.43,-261.64C242.16,-252.58 264.33,-240.56 282.79,-230.56"/>
<polygon fill="red" stroke="red" stroke-width="2" points="284.13,-224.14 288.9,-232.93 287.14,-233.89 282.38,-225.09 284.13,-224.14"/>
<polyline fill="none" stroke="red" stroke-width="2" points="287.4,-228.06 283,-230.44 "/>
</g>
<!-- Anion_growth -->
<g id="node13" class="node">
<title>Anion_growth</title>
<polygon fill="DarkSeaGreen" stroke="DarkSeaGreen" points="257.62,-355.98 142.62,-355.98 142.62,-319.98 257.62,-319.98 257.62,-355.98"/>
<text text-anchor="middle" x="200.12" y="-334.18" font-family="DejaVu Sans" font-size="16.00" fill="White">Anion_growth</text>
</g>
<!-- Anion_growth&#45;&gt;Anion -->
<g id="edge7" class="edge">
<title>Anion_growth&#45;&gt;Anion</title>
<path fill="none" stroke="black" stroke-width="2" d="M200.12,-319.73C200.12,-315.08 200.12,-309.92 200.12,-304.86"/>
<polygon fill="black" stroke="black" stroke-width="2" points="203.62,-304.77 200.12,-294.77 196.62,-304.77 203.62,-304.77"/>
</g>
<!-- K_Channel1&#45;&gt;Pmem_K -->
<g id="edge12" class="edge">
<title>K_Channel1&#45;&gt;Pmem_K</title>
<path fill="none" stroke="blue" stroke-width="2" d="M284.46,-191.77C270.64,-184.52 254.46,-176.04 239.75,-168.33"/>
<ellipse fill="blue" stroke="blue" stroke-width="2" cx="236.21" cy="-166.47" rx="4" ry="4"/>
</g>
</g>
</svg>
